<svg width="186" height="66" viewBox="0 0 186 66" fill="none" xmlns="http://www.w3.org/2000/svg">
    <path d="M39 3H25.5V3C13.0736 3 3 13.0736 3 25.5V33V40.5C3 52.9264 13.0736 63 25.5 63V63H39M149 3H160.5V3C172.926 3 183 13.0736 183 25.5V40.5C183 52.9264 172.926 63 160.5 63V63H154.75H151.875H150" stroke="black" stroke-width="6"/>
    <path d="M44.6528 39.198C43.2488 39.198 42.0428 38.928 41.0348 38.388C40.0268 37.848 39.2528 37.086 38.7128 36.102C38.1848 35.118 37.9208 33.966 37.9208 32.646C37.9208 31.326 38.1848 30.18 38.7128 29.208C39.2528 28.224 40.0268 27.462 41.0348 26.922C42.0428 26.382 43.2488 26.112 44.6528 26.112C45.2048 26.112 45.7748 26.178 46.3628 26.31C46.9628 26.43 47.4908 26.616 47.9468 26.868C48.2828 27.048 48.5168 27.276 48.6488 27.552C48.7808 27.828 48.8288 28.11 48.7928 28.398C48.7568 28.686 48.6488 28.944 48.4688 29.172C48.3008 29.4 48.0848 29.556 47.8208 29.64C47.5568 29.712 47.2688 29.67 46.9568 29.514C46.2488 29.166 45.5228 28.992 44.7788 28.992C43.6628 28.992 42.8228 29.31 42.2588 29.946C41.6948 30.57 41.4128 31.47 41.4128 32.646C41.4128 33.834 41.6948 34.746 42.2588 35.382C42.8228 36.006 43.6628 36.318 44.7788 36.318C45.0908 36.318 45.4268 36.282 45.7868 36.21C46.1468 36.126 46.5008 36 46.8488 35.832C47.2088 35.676 47.5268 35.634 47.8028 35.706C48.0908 35.778 48.3248 35.922 48.5048 36.138C48.6848 36.354 48.7928 36.606 48.8288 36.894C48.8768 37.17 48.8408 37.446 48.7208 37.722C48.6008 37.998 48.3788 38.22 48.0548 38.388C47.6348 38.64 47.1128 38.838 46.4888 38.982C45.8768 39.126 45.2648 39.198 44.6528 39.198ZM52.0054 39.162C51.4894 39.162 51.0934 39.024 50.8174 38.748C50.5534 38.472 50.4214 38.07 50.4214 37.542V27.768C50.4214 26.688 50.9494 26.148 52.0054 26.148C52.5214 26.148 52.9174 26.286 53.1934 26.562C53.4814 26.838 53.6254 27.24 53.6254 27.768V31.242C54.2614 30.378 55.1854 29.946 56.3974 29.946C57.4534 29.946 58.2334 30.258 58.7374 30.882C59.2534 31.506 59.5114 32.466 59.5114 33.762V37.542C59.5114 38.07 59.3734 38.472 59.0974 38.748C58.8214 39.024 58.4254 39.162 57.9094 39.162C57.3934 39.162 56.9974 39.024 56.7214 38.748C56.4454 38.472 56.3074 38.07 56.3074 37.542V33.888C56.3074 33.348 56.2114 32.964 56.0194 32.736C55.8394 32.508 55.5694 32.394 55.2094 32.394C54.7294 32.394 54.3454 32.55 54.0574 32.862C53.7694 33.162 53.6254 33.57 53.6254 34.086V37.542C53.6254 38.622 53.0854 39.162 52.0054 39.162ZM66.1614 39.198C65.0814 39.198 64.1454 39.012 63.3534 38.64C62.5734 38.256 61.9734 37.716 61.5534 37.02C61.1334 36.324 60.9234 35.502 60.9234 34.554C60.9234 33.654 61.1214 32.856 61.5174 32.16C61.9254 31.464 62.4774 30.924 63.1734 30.54C63.8814 30.144 64.6854 29.946 65.5854 29.946C66.4734 29.946 67.2414 30.132 67.8894 30.504C68.5494 30.876 69.0534 31.41 69.4014 32.106C69.7614 32.79 69.9414 33.594 69.9414 34.518C69.9414 34.986 69.6654 35.22 69.1134 35.22H63.9834C64.0914 35.796 64.3314 36.21 64.7034 36.462C65.0754 36.714 65.5914 36.84 66.2514 36.84C66.5034 36.84 66.8034 36.81 67.1514 36.75C67.4994 36.69 67.8294 36.594 68.1414 36.462C68.5254 36.318 68.8494 36.318 69.1134 36.462C69.3774 36.594 69.5514 36.804 69.6354 37.092C69.7314 37.368 69.7194 37.656 69.5994 37.956C69.4914 38.244 69.2694 38.466 68.9334 38.622C68.5134 38.826 68.0634 38.97 67.5834 39.054C67.1154 39.15 66.6414 39.198 66.1614 39.198ZM65.7294 32.016C65.2494 32.016 64.8534 32.16 64.5414 32.448C64.2414 32.736 64.0494 33.156 63.9654 33.708H67.3134C67.2774 33.144 67.1214 32.724 66.8454 32.448C66.5814 32.16 66.2094 32.016 65.7294 32.016ZM74.8497 39.198C74.3097 39.198 73.7697 39.156 73.2297 39.072C72.6897 38.988 72.1977 38.85 71.7537 38.658C71.3817 38.514 71.1357 38.304 71.0157 38.028C70.9077 37.752 70.8957 37.476 70.9797 37.2C71.0757 36.924 71.2437 36.714 71.4837 36.57C71.7237 36.426 72.0117 36.414 72.3477 36.534C72.8397 36.714 73.2897 36.846 73.6977 36.93C74.1057 37.002 74.4957 37.038 74.8677 37.038C75.3117 37.038 75.6297 36.978 75.8217 36.858C76.0137 36.726 76.1097 36.558 76.1097 36.354C76.1097 36.174 76.0437 36.042 75.9117 35.958C75.7917 35.862 75.6177 35.79 75.3897 35.742L73.3917 35.418C72.6477 35.298 72.0717 35.028 71.6637 34.608C71.2557 34.188 71.0517 33.642 71.0517 32.97C71.0517 32.346 71.2257 31.812 71.5737 31.368C71.9217 30.912 72.4077 30.564 73.0317 30.324C73.6557 30.072 74.3697 29.946 75.1737 29.946C75.7137 29.946 76.2057 29.988 76.6497 30.072C77.0937 30.156 77.5257 30.294 77.9457 30.486C78.2697 30.618 78.4737 30.822 78.5577 31.098C78.6537 31.374 78.6477 31.65 78.5397 31.926C78.4437 32.19 78.2697 32.394 78.0177 32.538C77.7777 32.67 77.4837 32.67 77.1357 32.538C76.7397 32.382 76.3857 32.268 76.0737 32.196C75.7737 32.124 75.4917 32.088 75.2277 32.088C74.7357 32.088 74.3877 32.16 74.1837 32.304C73.9797 32.436 73.8777 32.598 73.8777 32.79C73.8777 33.114 74.0997 33.312 74.5437 33.384L76.5417 33.726C77.3097 33.846 77.8977 34.11 78.3057 34.518C78.7257 34.914 78.9357 35.454 78.9357 36.138C78.9357 37.11 78.5637 37.866 77.8197 38.406C77.0757 38.934 76.0857 39.198 74.8497 39.198ZM83.7794 39.198C83.2394 39.198 82.6994 39.156 82.1594 39.072C81.6194 38.988 81.1274 38.85 80.6834 38.658C80.3114 38.514 80.0654 38.304 79.9454 38.028C79.8374 37.752 79.8254 37.476 79.9094 37.2C80.0054 36.924 80.1734 36.714 80.4134 36.57C80.6534 36.426 80.9414 36.414 81.2774 36.534C81.7694 36.714 82.2194 36.846 82.6274 36.93C83.0354 37.002 83.4254 37.038 83.7974 37.038C84.2414 37.038 84.5594 36.978 84.7514 36.858C84.9434 36.726 85.0394 36.558 85.0394 36.354C85.0394 36.174 84.9734 36.042 84.8414 35.958C84.7214 35.862 84.5474 35.79 84.3194 35.742L82.3214 35.418C81.5774 35.298 81.0014 35.028 80.5934 34.608C80.1854 34.188 79.9814 33.642 79.9814 32.97C79.9814 32.346 80.1554 31.812 80.5034 31.368C80.8514 30.912 81.3374 30.564 81.9614 30.324C82.5854 30.072 83.2994 29.946 84.1034 29.946C84.6434 29.946 85.1354 29.988 85.5794 30.072C86.0234 30.156 86.4554 30.294 86.8754 30.486C87.1994 30.618 87.4034 30.822 87.4874 31.098C87.5834 31.374 87.5774 31.65 87.4694 31.926C87.3734 32.19 87.1994 32.394 86.9474 32.538C86.7074 32.67 86.4134 32.67 86.0654 32.538C85.6694 32.382 85.3154 32.268 85.0034 32.196C84.7034 32.124 84.4214 32.088 84.1574 32.088C83.6654 32.088 83.3174 32.16 83.1134 32.304C82.9094 32.436 82.8074 32.598 82.8074 32.79C82.8074 33.114 83.0294 33.312 83.4734 33.384L85.4714 33.726C86.2394 33.846 86.8274 34.11 87.2354 34.518C87.6554 34.914 87.8654 35.454 87.8654 36.138C87.8654 37.11 87.4934 37.866 86.7494 38.406C86.0054 38.934 85.0154 39.198 83.7794 39.198ZM96.7255 37.416C96.4615 37.68 96.1855 37.8 95.8975 37.776C95.6215 37.752 95.3815 37.644 95.1775 37.452C94.9855 37.248 94.8775 37.008 94.8535 36.732C94.8415 36.444 94.9675 36.168 95.2315 35.904L97.2835 33.852L95.2135 31.764C94.9495 31.5 94.8235 31.23 94.8355 30.954C94.8595 30.666 94.9735 30.426 95.1775 30.234C95.3815 30.03 95.6215 29.922 95.8975 29.91C96.1855 29.886 96.4615 30.006 96.7255 30.27L98.7955 32.34L100.866 30.27C101.13 30.006 101.4 29.886 101.676 29.91C101.964 29.922 102.21 30.03 102.414 30.234C102.618 30.426 102.726 30.666 102.738 30.954C102.762 31.23 102.642 31.5 102.378 31.764L100.308 33.852L102.36 35.904C102.624 36.168 102.744 36.444 102.72 36.732C102.708 37.008 102.6 37.248 102.396 37.452C102.204 37.644 101.964 37.752 101.676 37.776C101.4 37.8 101.13 37.68 100.866 37.416L98.7955 35.364L96.7255 37.416ZM112.147 39.162C111.619 39.162 111.211 39.018 110.923 38.73C110.635 38.442 110.491 38.028 110.491 37.488V27.984C110.491 27.444 110.635 27.03 110.923 26.742C111.211 26.454 111.625 26.31 112.165 26.31H116.593C118.033 26.31 119.143 26.682 119.923 27.426C120.715 28.158 121.111 29.172 121.111 30.468C121.111 31.764 120.715 32.784 119.923 33.528C119.143 34.26 118.033 34.626 116.593 34.626H113.803V37.488C113.803 38.028 113.659 38.442 113.371 38.73C113.095 39.018 112.687 39.162 112.147 39.162ZM113.803 32.088H116.017C117.313 32.088 117.961 31.548 117.961 30.468C117.961 29.388 117.313 28.848 116.017 28.848H113.803V32.088ZM126.411 39.198C125.427 39.198 124.569 39.012 123.837 38.64C123.105 38.268 122.535 37.734 122.127 37.038C121.719 36.342 121.515 35.52 121.515 34.572C121.515 33.612 121.719 32.79 122.127 32.106C122.535 31.41 123.105 30.876 123.837 30.504C124.569 30.132 125.427 29.946 126.411 29.946C127.395 29.946 128.253 30.132 128.985 30.504C129.717 30.876 130.281 31.41 130.677 32.106C131.085 32.79 131.289 33.612 131.289 34.572C131.289 35.52 131.085 36.342 130.677 37.038C130.281 37.734 129.717 38.268 128.985 38.64C128.253 39.012 127.395 39.198 126.411 39.198ZM126.411 36.84C126.891 36.84 127.287 36.66 127.599 36.3C127.911 35.94 128.067 35.364 128.067 34.572C128.067 33.768 127.911 33.192 127.599 32.844C127.287 32.484 126.891 32.304 126.411 32.304C125.919 32.304 125.517 32.484 125.205 32.844C124.893 33.192 124.737 33.768 124.737 34.572C124.737 35.364 124.893 35.94 125.205 36.3C125.517 36.66 125.919 36.84 126.411 36.84ZM137.239 39.198C136.255 39.198 135.397 39.012 134.665 38.64C133.933 38.268 133.363 37.734 132.955 37.038C132.547 36.342 132.343 35.52 132.343 34.572C132.343 33.612 132.547 32.79 132.955 32.106C133.363 31.41 133.933 30.876 134.665 30.504C135.397 30.132 136.255 29.946 137.239 29.946C138.223 29.946 139.081 30.132 139.813 30.504C140.545 30.876 141.109 31.41 141.505 32.106C141.913 32.79 142.117 33.612 142.117 34.572C142.117 35.52 141.913 36.342 141.505 37.038C141.109 37.734 140.545 38.268 139.813 38.64C139.081 39.012 138.223 39.198 137.239 39.198ZM137.239 36.84C137.719 36.84 138.115 36.66 138.427 36.3C138.739 35.94 138.895 35.364 138.895 34.572C138.895 33.768 138.739 33.192 138.427 32.844C138.115 32.484 137.719 32.304 137.239 32.304C136.747 32.304 136.345 32.484 136.033 32.844C135.721 33.192 135.565 33.768 135.565 34.572C135.565 35.364 135.721 35.94 136.033 36.3C136.345 36.66 136.747 36.84 137.239 36.84ZM146.951 39.198C145.787 39.198 144.935 38.892 144.395 38.28C143.855 37.656 143.585 36.72 143.585 35.472V27.768C143.585 26.688 144.113 26.148 145.169 26.148C145.685 26.148 146.081 26.286 146.357 26.562C146.645 26.838 146.789 27.24 146.789 27.768V35.364C146.789 35.808 146.873 36.132 147.041 36.336C147.221 36.54 147.449 36.642 147.725 36.642C147.809 36.642 147.893 36.636 147.977 36.624C148.073 36.6 148.175 36.582 148.283 36.57C148.499 36.57 148.655 36.648 148.751 36.804C148.847 36.96 148.895 37.278 148.895 37.758C148.895 38.178 148.811 38.496 148.643 38.712C148.475 38.916 148.217 39.048 147.869 39.108C147.773 39.132 147.635 39.15 147.455 39.162C147.275 39.186 147.107 39.198 146.951 39.198Z" fill="black"/>
</svg>
